<?xml version="1.0" encoding="UTF-8"?>
<svg id="afcharts_sticker" data-name="afcharts sticker" xmlns="http://www.w3.org/2000/svg" version="1.1" width="124.44pt" height="144.00pt" viewBox="0 0 124.4 144">
  <defs>
    <style>
      .cls-1 {
        fill: #a285d1;
      }

      .cls-1, .cls-2, .cls-3, .cls-4, .cls-5 {
        opacity: .8;
      }

      .cls-1, .cls-2, .cls-3, .cls-4, .cls-5, .cls-6 {
        isolation: isolate;
      }

      .cls-1, .cls-2, .cls-3, .cls-4, .cls-5, .cls-7, .cls-8 {
        stroke-width: 0px;
      }

      .cls-2 {
        fill: #28a197;
      }

      .cls-3 {
        fill: #801650;
      }

      .cls-4 {
        fill: #f46a25;
      }

      .cls-5 {
        fill: #12436d;
      }

      .cls-9 {
        fill: none;
        stroke: #3d3d3d;
        stroke-linejoin: round;
        stroke-width: 2.6px;
      }

      .cls-7 {
        fill: #fff;
      }

      .cls-8 {
        fill: #003c57;
      }
    </style>
  </defs>
  <polygon id="background" class="cls-8" points="1.1 36.7 1.1 107.3 62.2 142.5 123.3 107.3 123.3 36.7 62.2 1.5 1.1 36.7"/>
  <g id="shapes">
    <path id="purple" class="cls-1" d="M1.1,81.7s1.9-4.6,6.6-7.9c7.5-5.2,12.7-3.2,20.9-3.2,15.2,0,19-8.3,27.2-7.4,12.1,1.4,15,13.9,22.3,15,5.3.8,12.8-7.2,16.5-12.2,19.2-26.2,28.7,17.6,28.7,17.6v23.6l-61,33.7L1.1,107.3v-25.5Z"/>
    <path id="orange" class="cls-4" d="M1.1,78.5s5.7,4.8,10.2-.4c6.1-7,15.1-24.3,30.3-14.9,8.8,5.5,14.2,20.3,22.1,21.3,5.1.6,16.4-15.1,24.6-14.8s13.3,18.5,20.8,23.3c8.3,5.3,14.1-10.1,14.1-7.5v21.7l-61,33.7L1.1,107.3v-28.8Z"/>
    <path id="pink" class="cls-3" d="M115.6,80.1c-4.8-10.8-16.4-30.2-44.3-12.7C43.5,85.1,13.9,96.3,1.1,93.6v13.7l61.1,33.7,61-33.7s-4.8-20.8-7.7-27.1Z"/>
    <path id="teal" class="cls-2" d="M1.1,93.6s6.6-10.7,23.7-10.7,24.3,16.2,33.1,16.5c8.2.2,18.5-11.5,23-14.4,24.5-16.2,29.6,13.9,42.3,11.9v10.4l-61,33.7L1.1,107.3v-13.7Z"/>
    <path id="blue" class="cls-5" d="M123.3,100.4s-10.9,4.8-19.8,4.9c-6.4.1-10.4-11.3-16.1-11.2s-10.5,19.6-17.2,19.7c-9.2,0-9.3-22.2-18.1-29.7-14.5-12.1-23.5,4.9-33.3,11.3-8.6,5.6-15.1,2.6-17.5.3v11.5l61.1,33.7,61-33.7v-6.8h0Z"/>
  </g>
  <polygon id="outline" class="cls-9" points="1.1 36.7 1.1 107.3 62.2 142.5 123.3 107.3 123.3 36.7 62.2 1.5 1.1 36.7"/>
  <g id="title" class="cls-6">
    <path class="cls-7" d="M27.8,45c.5,0,.8-.3,1-.6,0-.2.1-.5.1-.8,0-.7-.3-1.2-.8-1.6s-1.2-.5-2.2-.5-1.9.3-2.3.9c-.3.3-.4.8-.5,1.5h-2c0-1.6.5-2.6,1.5-3.2,1-.6,2.1-.9,3.4-.9s2.7.3,3.6.8c.9.6,1.4,1.4,1.4,2.6v7.2c0,.2,0,.4.1.5,0,.1.3.2.6.2s.2,0,.3,0,.2,0,.4,0v1.6c-.3,0-.6.2-.8.2s-.4,0-.7,0c-.7,0-1.3-.3-1.6-.8-.2-.3-.3-.7-.4-1.2-.4.6-1,1.1-1.9,1.5s-1.7.6-2.7.6-2.1-.4-2.9-1.1-1.1-1.6-1.1-2.7.4-2.1,1.1-2.7,1.7-1,2.9-1.2l3.4-.4ZM23.4,50.7c.4.4,1,.5,1.6.5s1.5-.2,2.2-.5c1.2-.6,1.8-1.5,1.8-2.8v-1.7c-.3.2-.6.3-1,.4-.4.1-.8.2-1.2.2l-1.3.2c-.8.1-1.3.3-1.7.5-.7.4-1,1-1,1.8s.2,1.1.7,1.4Z"/>
    <path class="cls-7" d="M35.4,36.3c.5-.7,1.4-1.1,2.8-1.1s.3,0,.4,0,.3,0,.5,0v1.9c-.2,0-.4,0-.5,0s-.2,0-.3,0c-.6,0-1,.2-1.2.5s-.2,1.2-.2,2.5h2.1v1.7h-2.1v10.8h-2.1v-10.8h-1.7v-1.7h1.7v-2c0-.9.2-1.5.5-1.9Z"/>
    <path class="cls-7" d="M49.4,40.8c.9.7,1.4,1.9,1.6,3.6h-2.1c-.1-.8-.4-1.4-.9-1.9s-1.2-.8-2.1-.8-2.3.7-2.9,2c-.4.8-.6,1.9-.6,3.1s.3,2.3.8,3.2,1.4,1.3,2.5,1.3,1.6-.3,2.1-.8.9-1.3,1.1-2.2h2.1c-.2,1.7-.8,2.9-1.8,3.7s-2.1,1.2-3.6,1.2-2.9-.6-3.9-1.8-1.5-2.7-1.5-4.5.5-3.9,1.6-5.1,2.4-1.8,4.1-1.8,2.6.3,3.5,1Z"/>
    <path class="cls-7" d="M53.1,35.4h2.1v6.4c.5-.6.9-1.1,1.3-1.3.7-.4,1.5-.7,2.5-.7,1.8,0,3.1.6,3.7,1.9.4.7.5,1.7.5,2.9v8.1h-2.2v-7.9c0-.9-.1-1.6-.4-2-.4-.7-1.1-1-2.2-1s-1.7.3-2.4.9-1.1,1.7-1.1,3.4v6.7h-2.1v-17.3Z"/>
    <path class="cls-7" d="M73.2,45c.5,0,.8-.3,1-.6,0-.2.1-.5.1-.8,0-.7-.3-1.2-.8-1.6s-1.2-.5-2.2-.5-1.9.3-2.3.9c-.3.3-.4.8-.5,1.5h-2c0-1.6.5-2.6,1.5-3.2,1-.6,2.1-.9,3.4-.9s2.7.3,3.6.8c.9.6,1.4,1.4,1.4,2.6v7.2c0,.2,0,.4.1.5,0,.1.3.2.6.2s.2,0,.3,0,.2,0,.4,0v1.6c-.3,0-.6.2-.8.2s-.4,0-.7,0c-.7,0-1.3-.3-1.6-.8-.2-.3-.3-.7-.4-1.2-.4.6-1,1.1-1.9,1.5s-1.7.6-2.7.6-2.1-.4-2.9-1.1-1.1-1.6-1.1-2.7.4-2.1,1.1-2.7,1.7-1,2.9-1.2l3.4-.4ZM68.7,50.7c.4.4,1,.5,1.6.5s1.5-.2,2.2-.5c1.2-.6,1.8-1.5,1.8-2.8v-1.7c-.3.2-.6.3-1,.4-.4.1-.8.2-1.2.2l-1.3.2c-.8.1-1.3.3-1.7.5-.7.4-1,1-1,1.8s.2,1.1.7,1.4Z"/>
    <path class="cls-7" d="M79.8,40.1h2v2.2c.2-.4.6-.9,1.2-1.5s1.4-.9,2.2-.9.1,0,.2,0,.3,0,.5,0v2.2c-.1,0-.2,0-.3,0s-.2,0-.3,0c-1.1,0-1.9.3-2.4,1s-.9,1.5-.9,2.4v7.2h-2.1v-12.6Z"/>
    <path class="cls-7" d="M88.2,36.6h2.1v3.5h2v1.7h-2v8.2c0,.4.1.7.4.9.2,0,.4.1.8.1s.2,0,.3,0,.3,0,.4,0v1.7c-.2,0-.5.1-.8.2s-.5,0-.8,0c-1,0-1.7-.3-2-.8s-.5-1.2-.5-2v-8.3h-1.7v-1.7h1.7v-3.5Z"/>
    <path class="cls-7" d="M95.7,48.7c0,.7.2,1.2.5,1.6.5.7,1.5,1,2.8,1s1.5-.2,2.1-.5c.6-.3.9-.9.9-1.6s-.2-.9-.7-1.2c-.3-.2-.9-.4-1.8-.6l-1.7-.4c-1.1-.3-1.9-.6-2.4-.9-.9-.6-1.4-1.4-1.4-2.4s.4-2.1,1.3-2.9c.9-.7,2-1.1,3.5-1.1s3.3.6,4.1,1.7c.5.7.8,1.5.8,2.3h-2c0-.5-.2-.9-.5-1.3-.5-.6-1.4-.8-2.6-.8s-1.4.2-1.9.5-.6.7-.6,1.2.3,1,.8,1.3c.3.2.8.4,1.4.5l1.4.3c1.5.4,2.6.7,3.1,1.1.8.5,1.2,1.4,1.2,2.5s-.4,2.1-1.3,2.9c-.9.8-2.2,1.2-3.9,1.2s-3.2-.4-4-1.3-1.2-1.9-1.3-3.1h2Z"/>
  </g>
</svg>